<svg width="16" height="17" viewBox="0 0 16 17" fill="none" xmlns="http://www.w3.org/2000/svg">
<path d="M10.6668 16.3134C10.4868 16.3134 10.3201 16.2134 10.2335 16.0601C10.1468 15.9068 10.1468 15.7134 10.2401 15.5601L10.9401 14.3934C11.0801 14.1534 11.3868 14.0801 11.6268 14.2201C11.8668 14.3601 11.9401 14.6667 11.8001 14.9067L11.6201 15.2067C13.4601 14.7734 14.8401 13.1201 14.8401 11.1467C14.8401 10.8734 15.0668 10.6467 15.3401 10.6467C15.6135 10.6467 15.8401 10.8734 15.8401 11.1467C15.8335 13.9934 13.5135 16.3134 10.6668 16.3134Z" fill="white"/>
<path d="M0.666668 6.3134C0.393335 6.3134 0.166668 6.08673 0.166668 5.8134C0.166668 2.96673 2.48667 0.646729 5.33333 0.646729C5.51333 0.646729 5.68 0.746732 5.76667 0.900065C5.85334 1.0534 5.85333 1.24673 5.76 1.40007L5.06 2.56673C4.92 2.80673 4.61334 2.88007 4.37334 2.74007C4.13334 2.60007 4.06 2.29343 4.2 2.05343L4.38 1.75342C2.54 2.18675 1.16 3.84006 1.16 5.8134C1.16667 6.08673 0.940001 6.3134 0.666668 6.3134Z" fill="white"/>
<path d="M6.28674 11.22H4.41341C4.14008 11.22 3.91341 10.9933 3.91341 10.72V9.21997C3.91341 8.94664 4.14008 8.71997 4.41341 8.71997H6.28674C6.95341 8.71997 7.54008 9.30664 7.54008 9.97331C7.54008 10.6533 6.97341 11.22 6.28674 11.22ZM4.91341 10.22H6.28674C6.42674 10.22 6.54008 10.1066 6.54008 9.96663C6.54008 9.86663 6.42674 9.7133 6.28674 9.7133H4.91341V10.22Z" fill="white"/>
<path d="M6.55324 12.72H4.40657C4.13324 12.72 3.90657 12.4933 3.90657 12.22V10.72C3.90657 10.4466 4.13324 10.22 4.40657 10.22H6.55324C7.29991 10.22 7.91324 10.78 7.91324 11.4733C7.91324 12.1666 7.30657 12.72 6.55324 12.72ZM4.91324 11.72H6.55991C6.77324 11.72 6.91991 11.5866 6.91991 11.4666C6.91991 11.3466 6.77324 11.2133 6.55991 11.2133H4.91324V11.72Z" fill="white"/>
<path d="M5.61328 13.4667C5.33995 13.4667 5.11328 13.24 5.11328 12.9667V12.2134C5.11328 11.94 5.33995 11.7134 5.61328 11.7134C5.88661 11.7134 6.11328 11.94 6.11328 12.2134V12.9667C6.11328 13.2467 5.88661 13.4667 5.61328 13.4667Z" fill="white"/>
<path d="M5.61328 9.7133C5.33995 9.7133 5.11328 9.48663 5.11328 9.2133V8.45996C5.11328 8.18663 5.33995 7.95996 5.61328 7.95996C5.88661 7.95996 6.11328 8.18663 6.11328 8.45996V9.2133C6.11328 9.4933 5.88661 9.7133 5.61328 9.7133Z" fill="white"/>
<path d="M5.78 15.3334C3.23333 15.3334 1.16667 13.2601 1.16667 10.7201C1.16667 8.18005 3.24 6.10669 5.78 6.10669C5.9 6.10669 6.00667 6.11337 6.12667 6.12004C8.38667 6.29337 10.2133 8.12003 10.38 10.3667C10.3867 10.5134 10.3933 10.6134 10.3933 10.7201C10.4 13.2601 8.32667 15.3334 5.78 15.3334ZM5.78 7.10006C3.78667 7.10006 2.16667 8.72005 2.16667 10.7134C2.16667 12.7067 3.78667 14.3267 5.78 14.3267C7.77333 14.3267 9.4 12.7067 9.4 10.7134C9.4 10.6267 9.39334 10.54 9.38667 10.4534C9.25334 8.6667 7.82 7.24002 6.06 7.10669C5.97333 7.10669 5.88 7.10006 5.78 7.10006Z" fill="white"/>
<path d="M10.2201 10.9H9.89344C9.63344 10.9 9.41344 10.7 9.39344 10.44C9.2601 8.67332 7.83344 7.24665 6.06677 7.11332C5.80677 7.09332 5.60677 6.87332 5.60677 6.61332V6.28666C5.60677 3.74 7.6801 1.67334 10.2268 1.67334C12.7734 1.67334 14.8401 3.74666 14.8401 6.28666C14.8401 8.82666 12.7601 10.9 10.2201 10.9ZM6.6001 6.17334C8.4801 6.51334 9.98677 8.01332 10.3268 9.89998C12.2734 9.83998 13.8334 8.24 13.8334 6.28666C13.8334 4.29333 12.2134 2.67334 10.2201 2.67334C8.2601 2.66667 6.6601 4.22667 6.6001 6.17334Z" fill="white"/>
</svg>
