<svg width="32" height="32" viewBox="0 0 32 32" fill="none" xmlns="http://www.w3.org/2000/svg">
<g id="Iconly/Bulk/Camera">
<g id="Camera">
<path id="Combined Shape" fill-rule="evenodd" clip-rule="evenodd" d="M22.28 13.4298C22.28 14.0957 22.8133 14.6284 23.48 14.6284C24.1467 14.6284 24.6933 14.0957 24.6933 13.4298C24.6933 12.7638 24.1467 12.2178 23.48 12.2178C22.8133 12.2178 22.28 12.7638 22.28 13.4298ZM19.6933 21.4742C18.7467 22.4198 17.44 23.0058 16 23.0058C14.6 23.0058 13.2933 22.4597 12.2933 21.4742C11.3067 20.4753 10.76 19.17 10.76 17.7716C10.7467 16.3865 11.2933 15.0813 12.28 14.0824C13.28 13.0835 14.6 12.5374 16 12.5374C17.4 12.5374 18.72 13.0835 19.7067 14.0691C20.6933 15.0679 21.24 16.3865 21.24 17.7716C21.2267 19.2233 20.64 20.5285 19.6933 21.4742ZM16 14.5352C15.1333 14.5352 14.32 14.8682 13.6933 15.4941C13.08 16.1068 12.7467 16.9192 12.76 17.7583V17.7716C12.76 18.6373 13.0933 19.4497 13.7067 20.0624C14.32 20.675 15.1333 21.008 16 21.008C17.7867 21.008 19.2267 19.5563 19.24 17.7716C19.24 16.9059 18.9067 16.0935 18.2933 15.4808C17.68 14.8682 16.8667 14.5352 16 14.5352Z" fill="#FF9B01"/>
<path id="Path" opacity="0.4" d="M23.2537 8.31521L23.1203 8.0222C22.7603 7.26304 22.347 6.38402 22.0937 5.87791C21.4803 4.67925 20.427 4.01332 19.1337 4H12.8537C11.5603 4.01332 10.5203 4.67925 9.90699 5.87791C9.64033 6.41066 9.18699 7.36959 8.81366 8.15538L8.73366 8.31521C8.69366 8.42175 8.58699 8.47503 8.48033 8.47503C5.26699 8.47503 2.66699 11.0855 2.66699 14.2819V22.1931C2.66699 25.3896 5.26699 28 8.48033 28H23.5203C26.7203 28 29.3337 25.3896 29.3337 22.1931V14.2819C29.3337 11.0855 26.7203 8.47503 23.5203 8.47503C23.4003 8.47503 23.307 8.40844 23.2537 8.31521Z" fill="#FF9B01"/>
</g>
</g>
</svg>
