<svg width="45" height="44" viewBox="0 0 45 44" fill="none" xmlns="http://www.w3.org/2000/svg">
<path d="M28.0733 32.75H16.5933C14.1033 32.75 12.0833 30.73 12.0833 28.24V21.51C12.0833 19.02 14.1033 17 16.5933 17H28.0733C30.5633 17 32.5833 19.02 32.5833 21.51V22.95C32.5833 23.36 32.2433 23.7 31.8333 23.7H29.8133C29.4633 23.7 29.1433 23.83 28.9133 24.07L28.9033 24.08C28.6233 24.35 28.4933 24.72 28.5233 25.1C28.5833 25.76 29.2133 26.29 29.9333 26.29H31.8333C32.2433 26.29 32.5833 26.63 32.5833 27.04V28.23C32.5833 30.73 30.5633 32.75 28.0733 32.75ZM16.5933 18.5C14.9333 18.5 13.5833 19.85 13.5833 21.51V28.24C13.5833 29.9 14.9333 31.25 16.5933 31.25H28.0733C29.7333 31.25 31.0833 29.9 31.0833 28.24V27.8H29.9333C28.4233 27.8 27.1433 26.68 27.0233 25.24C26.9433 24.42 27.2433 23.61 27.8433 23.02C28.3633 22.49 29.0633 22.2 29.8133 22.2H31.0833V21.51C31.0833 19.85 29.7333 18.5 28.0733 18.5H16.5933Z" fill="#BAC2CC"/>
<path d="M12.8333 23.16C12.4233 23.16 12.0833 22.82 12.0833 22.41V17.8401C12.0833 16.3501 13.0233 15 14.4133 14.47L22.3533 11.47C23.1733 11.16 24.0833 11.2701 24.7933 11.7701C25.5133 12.2701 25.9333 13.08 25.9333 13.95V17.75C25.9333 18.16 25.5933 18.5 25.1833 18.5C24.7733 18.5 24.4333 18.16 24.4333 17.75V13.95C24.4333 13.57 24.2533 13.22 23.9333 13C23.6133 12.78 23.2333 12.73 22.8733 12.87L14.9333 15.87C14.1233 16.18 13.5733 16.9701 13.5733 17.8401V22.41C13.5833 22.83 13.2433 23.16 12.8333 23.16Z" fill="#BAC2CC"/>
<path d="M29.9333 27.7999C28.4233 27.7999 27.1433 26.6799 27.0233 25.2399C26.9433 24.4099 27.2433 23.5999 27.8433 23.0099C28.3533 22.4899 29.0533 22.2 29.8033 22.2H31.8833C32.8733 22.23 33.6333 23.0099 33.6333 23.9699V26.03C33.6333 26.99 32.8733 27.7699 31.9133 27.7999H29.9333ZM31.8633 23.7H29.8133C29.4633 23.7 29.1433 23.8299 28.9133 24.0699C28.6233 24.3499 28.4833 24.7299 28.5233 25.1099C28.5833 25.7699 29.2133 26.2999 29.9333 26.2999H31.8933C32.0233 26.2999 32.1433 26.18 32.1433 26.03V23.9699C32.1433 23.8199 32.0233 23.71 31.8633 23.7Z" fill="#BAC2CC"/>
<path d="M24.3333 22.75H17.3333C16.9233 22.75 16.5833 22.41 16.5833 22C16.5833 21.59 16.9233 21.25 17.3333 21.25H24.3333C24.7433 21.25 25.0833 21.59 25.0833 22C25.0833 22.41 24.7433 22.75 24.3333 22.75Z" fill="#BAC2CC"/>
</svg>
