<svg width="45" height="44" viewBox="0 0 45 44" fill="none" xmlns="http://www.w3.org/2000/svg">
<path d="M26.1667 25.75C25.9867 25.75 25.7866 25.74 25.5966 25.73C25.2266 25.71 24.9267 25.41 24.8967 25.04C24.6767 22.25 22.4066 19.99 19.6266 19.77C19.2566 19.74 18.9566 19.44 18.9366 19.07C18.9266 18.88 18.9167 18.69 18.9167 18.5C18.9167 14.5 22.1667 11.25 26.1667 11.25C30.1667 11.25 33.4167 14.5 33.4167 18.5C33.4167 22.5 30.1667 25.75 26.1667 25.75ZM20.4167 18.36C23.3967 18.88 25.7867 21.27 26.3067 24.25C29.4167 24.17 31.9167 21.63 31.9167 18.5C31.9167 15.33 29.3367 12.75 26.1667 12.75C23.0467 12.75 20.4967 15.25 20.4167 18.36Z" fill="#BAC2CC"/>
<path d="M19.1667 32.75C15.1667 32.75 11.9167 29.5 11.9167 25.5C11.9167 21.5 15.1667 18.25 19.1667 18.25C19.3467 18.25 19.5467 18.26 19.7367 18.27C23.2667 18.55 26.1267 21.41 26.3967 24.92C26.4067 25.12 26.4167 25.31 26.4167 25.5C26.4167 29.5 23.1667 32.75 19.1667 32.75ZM19.1667 19.75C15.9967 19.75 13.4167 22.33 13.4167 25.5C13.4167 28.67 15.9967 31.25 19.1667 31.25C22.3367 31.25 24.9167 28.67 24.9167 25.5C24.9167 25.34 24.9067 25.18 24.8967 25.03C24.6767 22.26 22.4166 19.99 19.6266 19.77C19.4866 19.76 19.3267 19.75 19.1667 19.75Z" fill="#BAC2CC"/>
<path d="M13.6667 17.34C13.4367 17.34 13.2166 17.3 12.9966 17.21C12.3366 16.94 11.9167 16.3 11.9167 15.59V13C11.9167 12.04 12.7067 11.25 13.6667 11.25H16.2567C16.9667 11.25 17.5966 11.67 17.8766 12.33C18.1466 12.99 17.9966 13.74 17.4966 14.24L14.9066 16.83C14.5666 17.16 14.1267 17.34 13.6667 17.34ZM13.6667 12.75C13.5267 12.75 13.4167 12.86 13.4167 13V15.59C13.4167 15.74 13.5167 15.8 13.5667 15.82C13.6267 15.84 13.7367 15.87 13.8367 15.77L16.4267 13.18C16.5267 13.08 16.5067 12.97 16.4767 12.91C16.4467 12.85 16.3866 12.76 16.2466 12.76H13.6667V12.75Z" fill="#BAC2CC"/>
<path d="M31.6665 32.7501H29.0765C28.3665 32.7501 27.7365 32.3301 27.4565 31.6701C27.1865 31.0101 27.3365 30.2601 27.8365 29.7601L30.4265 27.1701C30.9265 26.6701 31.6765 26.5201 32.3365 26.7901C32.9965 27.0601 33.4165 27.7001 33.4165 28.4101V31.0001C33.4165 31.9601 32.6265 32.7501 31.6665 32.7501ZM31.6565 28.1601C31.6065 28.1601 31.5465 28.1801 31.4865 28.2401L28.8965 30.83C28.7965 30.93 28.8165 31.0401 28.8465 31.1001C28.8765 31.1601 28.9365 31.2501 29.0765 31.2501H31.6665C31.8065 31.2501 31.9165 31.1401 31.9165 31.0001V28.4101C31.9165 28.2601 31.8165 28.2001 31.7665 28.1801C31.7365 28.1701 31.6965 28.1601 31.6565 28.1601Z" fill="#BAC2CC"/>
</svg>
