<svg width="27" height="27" viewBox="0 0 27 27" fill="none" xmlns="http://www.w3.org/2000/svg">
<g clip-path="url(#clip0_1_7894)">
<path d="M26.9346 13.7059C26.9346 6.62285 20.9533 0.880859 13.5752 0.880859C6.19706 0.880859 0.21582 6.62275 0.21582 13.7059C0.21582 20.1071 5.10118 25.413 11.4878 26.3751V17.4131H8.09576V13.7059H11.4878V10.8804C11.4878 7.66609 13.4823 5.89062 16.5338 5.89062C17.9955 5.89062 19.5243 6.14111 19.5243 6.14111V9.29727H17.8398C16.1801 9.29727 15.6626 10.2859 15.6626 11.3002V13.7059H19.3677L18.7754 17.4131H15.6626V26.3751C22.0492 25.413 26.9346 20.1072 26.9346 13.7059Z" fill="#1877F2"/>
<path d="M18.7754 17.4131L19.3677 13.7059H15.6625V11.3002C15.6625 10.2858 16.1801 9.29727 17.8397 9.29727H19.5242V6.14111C19.5242 6.14111 17.9954 5.89062 16.5337 5.89062C13.4822 5.89062 11.4877 7.66609 11.4877 10.8804V13.7059H8.0957V17.4131H11.4877V26.3751C12.1783 26.4789 12.8762 26.531 13.5751 26.5309C14.2741 26.5311 14.972 26.479 15.6625 26.3751V17.4131H18.7754Z" fill="white"/>
</g>
<defs>
<clipPath id="clip0_1_7894">
<rect width="26.7188" height="25.65" fill="white" transform="translate(0.21582 0.880859)"/>
</clipPath>
</defs>
</svg>
