<svg width="27" height="26" viewBox="0 0 27 26" fill="none" xmlns="http://www.w3.org/2000/svg">
<g clip-path="url(#clip0_1_7899)">
<path d="M9.68578 1.08749C7.12295 1.97656 4.91276 3.66404 3.37987 5.90208C1.84697 8.14011 1.07217 10.8107 1.16926 13.5217C1.26635 16.2326 2.23022 18.8409 3.91929 20.9636C5.60836 23.0862 7.9336 24.6113 10.5535 25.3147C12.6775 25.8628 14.9028 25.8868 17.0381 25.3849C18.9725 24.9503 20.7609 24.0209 22.2282 22.6876C23.7554 21.2575 24.8638 19.4382 25.4345 17.4253C26.0545 15.2364 26.1649 12.9345 25.7571 10.6962H13.8299V15.6439H20.7373C20.5993 16.433 20.3034 17.1861 19.8675 17.8582C19.4316 18.5304 18.8646 19.1076 18.2004 19.5555C17.357 20.1136 16.4061 20.4891 15.4089 20.6576C14.4089 20.8436 13.3831 20.8436 12.383 20.6576C11.3694 20.4483 10.4105 20.0299 9.56755 19.4292C8.2132 18.4705 7.19628 17.1086 6.66188 15.5377C6.1186 13.9373 6.1186 12.2024 6.66188 10.602C7.04228 9.48028 7.67112 8.45893 8.50147 7.61421C9.4517 6.62979 10.6547 5.92612 11.9786 5.5804C13.3024 5.23468 14.6959 5.26028 16.0061 5.65439C17.0297 5.96845 17.9657 6.51743 18.7394 7.25752C19.5183 6.48267 20.2958 5.70583 21.072 4.92697C21.4728 4.50816 21.9096 4.10938 22.3044 3.68054C21.1231 2.58144 19.7367 1.72614 18.2244 1.16364C15.4705 0.163668 12.4571 0.136795 9.68578 1.08749Z" fill="white"/>
<path d="M9.68586 1.08749C12.457 0.136146 15.4703 0.162312 18.2245 1.16163C19.737 1.72796 21.1229 2.58737 22.3024 3.69056C21.9017 4.1194 21.4788 4.52018 21.07 4.93699C20.2925 5.71317 19.5157 6.48668 18.7395 7.25751C17.9658 6.51743 17.0298 5.96845 16.0062 5.65439C14.6964 5.2589 13.3029 5.23182 11.9788 5.57612C10.6546 5.92042 9.45082 6.6228 8.49954 7.60619C7.66919 8.45091 7.04035 9.47227 6.65996 10.594L2.50586 7.37775C3.99277 4.42912 6.56727 2.17365 9.68586 1.08749Z" fill="#E33629"/>
<path d="M1.40375 10.5637C1.62687 9.45704 1.99756 8.38539 2.5059 7.37744L6.66 10.6017C6.11672 12.2021 6.11672 13.937 6.66 15.5373C5.27597 16.6061 3.89127 17.6802 2.5059 18.7596C1.23372 16.2273 0.84573 13.3421 1.40375 10.5637Z" fill="#F8BD00"/>
<path d="M13.83 10.6938H25.7572C26.165 12.9321 26.0547 15.234 25.4346 17.423C24.864 19.4358 23.7555 21.2551 22.2284 22.6852C20.8878 21.6392 19.5411 20.6012 18.2005 19.5551C18.8652 19.1068 19.4325 18.5289 19.8684 17.8561C20.3043 17.1832 20.5999 16.4293 20.7375 15.6395H13.83C13.828 13.9923 13.83 12.3431 13.83 10.6938Z" fill="#587DBD"/>
<path d="M2.50391 18.7599C3.88927 17.6911 5.27397 16.617 6.658 15.5376C7.19346 17.1091 8.21184 18.4711 9.56768 19.4292C10.4132 20.0271 11.3742 20.442 12.3892 20.6476C13.3892 20.8336 14.415 20.8336 15.4151 20.6476C16.4123 20.479 17.3631 20.1036 18.2065 19.5454C19.5471 20.5914 20.8938 21.6295 22.2344 22.6755C20.7673 24.0096 18.9789 24.9397 17.0442 25.3748C14.9089 25.8768 12.6836 25.8527 10.5596 25.3046C8.87974 24.8561 7.31063 24.0654 5.95063 22.9821C4.51128 21.8391 3.3356 20.3989 2.50391 18.7599Z" fill="#319F43"/>
</g>
<defs>
<clipPath id="clip0_1_7899">
<rect width="25.65" height="25.65" fill="white" transform="translate(0.75 0.243652)"/>
</clipPath>
</defs>
</svg>
