<svg width="16" height="17" viewBox="0 0 16 17" fill="none" xmlns="http://www.w3.org/2000/svg">
<path d="M8.69999 11.3332H7.44667C6.56 11.3332 5.83333 10.5866 5.83333 9.66658C5.83333 9.39324 6.05999 9.16658 6.33333 9.16658C6.60666 9.16658 6.83333 9.39324 6.83333 9.66658C6.83333 10.0332 7.10667 10.3332 7.44667 10.3332H8.69999C8.95999 10.3332 9.16666 10.0999 9.16666 9.81324C9.16666 9.45324 9.06667 9.39991 8.84 9.31991L6.83333 8.6199C6.40666 8.46657 5.83333 8.15991 5.83333 7.17991C5.83333 6.34658 6.49334 5.65991 7.3 5.65991H8.55332C9.43999 5.65991 10.1667 6.40658 10.1667 7.32658C10.1667 7.59991 9.93999 7.82658 9.66666 7.82658C9.39333 7.82658 9.16666 7.59991 9.16666 7.32658C9.16666 6.95991 8.89332 6.65991 8.55332 6.65991H7.3C7.04 6.65991 6.83333 6.89324 6.83333 7.17991C6.83333 7.53991 6.93332 7.59324 7.15999 7.67324L9.16666 8.37324C9.59333 8.52657 10.1667 8.83324 10.1667 9.81324C10.1667 10.6532 9.50665 11.3332 8.69999 11.3332Z" fill="white"/>
<path d="M8 12C7.72667 12 7.5 11.7733 7.5 11.5V5.5C7.5 5.22667 7.72667 5 8 5C8.27333 5 8.5 5.22667 8.5 5.5V11.5C8.5 11.7733 8.27333 12 8 12Z" fill="white"/>
<path d="M8 15.6666C4.04666 15.6666 0.833328 12.4533 0.833328 8.49992C0.833328 4.54659 4.04666 1.33325 8 1.33325C8.27333 1.33325 8.5 1.55992 8.5 1.83325C8.5 2.10659 8.27333 2.33325 8 2.33325C4.6 2.33325 1.83333 5.09992 1.83333 8.49992C1.83333 11.8999 4.6 14.6666 8 14.6666C11.4 14.6666 14.1667 11.8999 14.1667 8.49992C14.1667 8.22659 14.3933 7.99992 14.6667 7.99992C14.94 7.99992 15.1667 8.22659 15.1667 8.49992C15.1667 12.4533 11.9533 15.6666 8 15.6666Z" fill="white"/>
<path d="M14.6667 4.99992C14.3933 4.99992 14.1667 4.77325 14.1667 4.49992V2.33325H12C11.7267 2.33325 11.5 2.10659 11.5 1.83325C11.5 1.55992 11.7267 1.33325 12 1.33325H14.6667C14.94 1.33325 15.1667 1.55992 15.1667 1.83325V4.49992C15.1667 4.77325 14.94 4.99992 14.6667 4.99992Z" fill="white"/>
<path d="M11.3333 5.66663C11.2066 5.66663 11.08 5.61996 10.98 5.51996C10.7866 5.32663 10.7866 5.00663 10.98 4.81329L14.3133 1.47996C14.5066 1.28663 14.8266 1.28663 15.02 1.47996C15.2133 1.67329 15.2133 1.99329 15.02 2.18663L11.6866 5.51996C11.5866 5.61996 11.46 5.66663 11.3333 5.66663Z" fill="white"/>
</svg>
