<svg width="18" height="19" viewBox="0 0 18 19" fill="none" xmlns="http://www.w3.org/2000/svg">
<path d="M11.25 3.5C12.4538 3.5 13.8057 3.5 14.2381 3.76767C14.4253 3.88354 14.586 4.03244 14.7111 4.20586C15 4.60645 15 5.1641 15 6.27941V13.8235C15 15.3209 15 16.0696 14.4979 16.5348C13.9958 17 13.1877 17 11.5714 17H6.42857C4.81233 17 4.00421 17 3.5021 16.5348C3 16.0696 3 15.3209 3 13.8235V6.27941C3 5.1641 3 4.60645 3.28891 4.20586C3.41398 4.03244 3.5747 3.88354 3.76188 3.76767C4.19426 3.5 5.54618 3.5 6.75 3.5" stroke="white" stroke-width="1.6"/>
<path d="M6.75 3.5C6.75 2.67157 7.42157 2 8.25 2H9.75C10.5784 2 11.25 2.67157 11.25 3.5C11.25 4.32843 10.5784 5 9.75 5H8.25C7.42157 5 6.75 4.32843 6.75 3.5Z" stroke="white" stroke-width="1.6"/>
<path d="M6.75 9.5L11.25 9.5" stroke="white" stroke-width="1.6" stroke-linecap="round"/>
<path d="M6.75 11.75L9.75 11.75" stroke="white" stroke-width="1.6" stroke-linecap="round"/>
</svg>
