<svg width="76" height="88" viewBox="0 0 76 88" fill="none" xmlns="http://www.w3.org/2000/svg">
<path d="M71.1099 73.207C68.1878 65.3539 50.315 61.6033 47.1856 59.3275C43.1676 56.4055 44.4459 46.7263 44.4459 46.7263L37.8715 46.8993L31.2967 46.7263C31.2967 46.7263 32.5754 56.4055 28.5574 59.3275C25.428 61.6033 7.55521 65.3539 4.63317 73.207C1.71112 81.06 0.615234 88 0.615234 88H37.5064H38.2366H75.1273C75.1273 88 74.0319 81.06 71.1099 73.207" fill="#A1444B"/>
<path d="M30.0791 57.5239C33.1564 57.2094 36.2505 56.5853 38.9302 55.0864C40.8837 53.994 42.6425 52.704 44.275 51.2518C44.1782 48.7647 44.446 46.7262 44.446 46.7262L37.8717 46.8992L31.2969 46.7262C31.2969 46.7262 32.207 53.6151 30.0791 57.5239" fill="#7A3134"/>
<path d="M71.6278 73.0984C68.7815 65.4488 51.8556 61.6638 47.8898 59.3492C44.7579 61.1704 40.938 62.2442 36.811 62.2442C33.2255 62.2442 29.871 61.4338 26.9976 60.0273C21.4396 62.3931 7.24708 66.1525 4.66266 73.0984C1.71899 81.0089 0.615234 88 0.615234 88H37.7776H38.5133H75.6752C75.6752 88 74.5715 81.0089 71.6278 73.0984" fill="#FF9B01"/>
<path d="M26.8316 31.637C25.7701 28.3425 23.2554 29.1052 23.02 29.1848C22.7733 29.2133 20.1742 29.5996 20.6233 33.0312C21.075 36.484 23.078 38.3549 24.9563 37.8049C26.8896 37.4988 27.8999 34.9507 26.8316 31.637" fill="#7A3134"/>
<path d="M48.5813 31.637C49.6432 28.3425 52.1574 29.1052 52.3928 29.1848C52.6395 29.2133 55.2387 29.5996 54.79 33.0312C54.3379 36.484 52.3348 38.3549 50.4566 37.8049C48.5238 37.4988 47.5129 34.9507 48.5813 31.637" fill="#7A3134"/>
<path d="M50.7739 26.4545C49.4579 12.0128 38.4789 12.8217 37.4434 12.9303C36.408 12.8217 25.4289 12.0128 24.1129 26.4545C22.7895 40.9826 29.2601 50.4706 37.4434 49.9487C45.6267 50.4706 52.0978 40.9826 50.7739 26.4545Z" fill="#A1444B"/>
<path d="M38.1719 38.6772C38.2102 38.579 38.2618 38.4949 38.3095 38.407C38.3552 38.317 38.4107 38.2369 38.4648 38.1558C38.5753 37.9961 38.6967 37.8477 38.824 37.7052C38.9552 37.5671 39.0849 37.4275 39.2309 37.3042C39.371 37.1754 39.5223 37.0585 39.6791 36.9474L39.6132 37.1371C39.4958 36.1813 39.3872 35.224 39.2835 34.2657C39.193 33.3054 39.0849 32.3481 39.0122 31.3854C39.2122 32.3299 39.3764 33.2794 39.5582 34.2259C39.7277 35.1748 39.8914 36.1243 40.0467 37.0752L40.0614 37.1636L39.9808 37.2654C39.8609 37.4162 39.7361 37.5612 39.5999 37.6939C39.4692 37.833 39.3228 37.9548 39.1778 38.0782C39.0289 38.1981 38.8736 38.3111 38.708 38.4129C38.6245 38.4625 38.5414 38.5136 38.449 38.5544C38.3586 38.5976 38.2721 38.6443 38.1719 38.6772" fill="#7A3134"/>
<path d="M30.6123 31.6031C30.6123 32.6906 31.0163 33.5728 31.5141 33.5728C32.0124 33.5728 32.4159 32.6906 32.4159 31.6031C32.4159 30.5156 32.0124 29.6334 31.5141 29.6334C31.0163 29.6334 30.6123 30.5156 30.6123 31.6031Z" fill="#29202E"/>
<path d="M43.0039 31.6031C43.0039 32.6906 43.4079 33.5728 43.9057 33.5728C44.404 33.5728 44.8075 32.6906 44.8075 31.6031C44.8075 30.5156 44.404 29.6334 43.9057 29.6334C43.4079 29.6334 43.0039 30.5156 43.0039 31.6031Z" fill="#29202E"/>
<path d="M28.3994 28.3804C28.3994 28.3804 28.5562 27.9086 29.0437 27.3607C29.1719 27.2324 29.3002 27.0756 29.4697 26.9479C29.6309 26.8093 29.8147 26.6771 30.0216 26.5606C30.2182 26.4294 30.4585 26.3478 30.6914 26.25C30.9406 26.1896 31.1893 26.1006 31.4581 26.0947C31.5908 26.0878 31.7234 26.078 31.8556 26.0766C31.9878 26.0888 32.1195 26.109 32.2493 26.1267C32.5132 26.1439 32.7481 26.2648 32.9786 26.3439C33.209 26.4289 33.3923 26.5827 33.5776 26.6957C33.7678 26.8058 33.8887 26.9803 34.0228 27.1066C34.1521 27.2383 34.2666 27.3602 34.3388 27.4938C34.4209 27.6177 34.4828 27.7322 34.5344 27.8241C34.6352 28.0094 34.6824 28.1184 34.6824 28.1184C34.6824 28.1184 34.5673 28.0664 34.385 27.9695C34.2951 27.9199 34.185 27.8629 34.0695 27.7902C33.9575 27.712 33.8081 27.6604 33.6626 27.5877C33.5098 27.5292 33.3673 27.4245 33.1913 27.3828C33.0184 27.3376 32.8537 27.2486 32.6704 27.2196C32.4861 27.197 32.3092 27.1258 32.1181 27.1341C32.0242 27.1287 31.9303 27.1257 31.836 27.1144L31.5505 27.1375C31.3583 27.1302 31.1701 27.2034 30.9779 27.2231C30.7927 27.2884 30.5981 27.3179 30.4197 27.3965C30.2369 27.4604 30.0595 27.5307 29.8929 27.6093C29.7204 27.6771 29.5666 27.7656 29.4127 27.8314C29.2638 27.9106 29.1272 27.9823 29.0063 28.0462C28.883 28.114 28.7754 28.173 28.6864 28.2216C28.5041 28.3229 28.3994 28.3804 28.3994 28.3804" fill="#29202E"/>
<path d="M40.8779 28.3804C40.8779 28.3804 41.0342 27.9086 41.5217 27.3607C41.6505 27.2324 41.7787 27.0756 41.9483 26.9479C42.1094 26.8093 42.2932 26.6771 42.5001 26.5606C42.6967 26.4294 42.9365 26.3478 43.1695 26.25C43.4191 26.1896 43.6673 26.1006 43.9361 26.0947C44.0693 26.0878 44.202 26.078 44.3337 26.0766C44.4663 26.0888 44.5976 26.109 44.7273 26.1267C44.9917 26.1439 45.2261 26.2648 45.4571 26.3439C45.6871 26.4289 45.8704 26.5827 46.0556 26.6957C46.2458 26.8058 46.3667 26.9803 46.5009 27.1066C46.6306 27.2383 46.7451 27.3602 46.8173 27.4938C46.8989 27.6177 46.9608 27.7322 47.0124 27.8241C47.1137 28.0094 47.1604 28.1184 47.1604 28.1184C47.1604 28.1184 47.0459 28.0664 46.8635 27.9695C46.7736 27.9199 46.6635 27.8629 46.548 27.7902C46.4355 27.712 46.2866 27.6604 46.1411 27.5877C45.9878 27.5292 45.8453 27.4245 45.6694 27.3828C45.4969 27.3376 45.3322 27.2486 45.1484 27.2196C44.9647 27.197 44.7872 27.1258 44.5966 27.1341C44.5022 27.1287 44.4084 27.1257 44.3145 27.1144L44.029 27.1375C43.8368 27.1302 43.6481 27.2034 43.456 27.2231C43.2707 27.2884 43.0766 27.3179 42.8982 27.3965C42.7149 27.4604 42.538 27.5307 42.3709 27.6093C42.1989 27.6771 42.0451 27.7656 41.8913 27.8314C41.7419 27.9106 41.6057 27.9823 41.4843 28.0462C41.361 28.114 41.2534 28.173 41.1649 28.2216C40.9821 28.3229 40.8779 28.3804 40.8779 28.3804" fill="#29202E"/>
<path d="M31.9463 40.7826L44.1156 40.6661C44.1156 40.6661 38.8263 45.574 31.9463 40.7826Z" fill="white"/>
<path d="M23.3459 18.1766C23.3459 18.1766 22.6088 36.2367 24.6974 44.7138C26.2695 51.0941 30.8402 52.8224 30.8402 52.8224C30.8402 52.8224 41.6517 56.9996 47.6717 50.2424C49.4055 48.2964 52.0946 38.0795 50.866 19.7738L46.4431 17.9309C46.4431 17.9309 47.1803 26.8995 49.3917 28.0052C49.3917 28.0052 48.7415 44.0337 45.9517 45.9424C43.6174 47.5396 47.5488 38.571 43.0031 38.6938C38.4574 38.8167 38.3345 38.9395 38.3345 38.9395C38.3345 38.9395 30.226 37.5881 30.3488 40.7824C30.4717 43.9767 31.3317 46.0653 30.226 46.0653C29.1202 46.0653 25.0659 43.4853 25.8031 26.6538C25.8031 26.6538 28.1374 25.7938 28.1374 19.8966C28.1374 12.1409 23.3459 18.1766 23.3459 18.1766Z" fill="#29202E"/>
<path d="M27.6468 17.194C27.6468 17.194 31.1812 21.9854 35.3868 21.9854C37.7211 21.9854 35.3868 17.9311 35.3868 17.9311C35.3868 17.9311 38.704 23.0911 42.144 22.9683C45.584 22.8454 42.6354 17.9311 42.6354 17.9311C42.6354 17.9311 45.2154 23.214 48.4097 22.9683C51.604 22.7225 48.9011 17.5625 48.9011 17.5625C48.9011 17.5625 50.3754 23.0911 53.4469 22.354C56.5183 21.6168 52.7097 16.8254 52.7097 16.8254C52.7097 16.8254 55.2897 19.2825 56.3954 19.1597C57.5012 19.0368 57.5012 15.7197 53.6926 14.1225C53.6926 14.1225 57.5012 13.9997 57.624 12.1568C57.7631 10.0687 55.2897 9.33109 49.6383 9.94537C49.6383 9.94537 54.3069 7.97966 53.324 6.25965C52.3411 4.53965 48.164 6.9968 48.164 6.9968C48.164 6.9968 52.3411 4.6625 49.884 2.81964C47.8672 1.30702 37.3525 1.34535 30.964 8.96252C30.964 8.96252 44.2326 1.95964 42.6354 0.976781C41.5076 0.282391 25.6349 3.82904 23.2239 10.5597C20.2754 18.7911 22.4868 23.4597 23.4402 29.0645L27.6468 17.194Z" fill="#29202E"/>
</svg>
