<svg width="33" height="33" viewBox="0 0 33 33" fill="none" xmlns="http://www.w3.org/2000/svg">
<g clip-path="url(#clip0_1_7907)">
<path d="M27.5237 5.0611C26.054 3.5772 24.3036 2.4008 22.3745 1.60054C20.4454 0.800277 18.3763 0.392166 16.2878 0.400013C7.53672 0.400013 0.40482 7.52991 0.396805 16.283C0.396805 19.0864 1.13023 21.8138 2.51493 24.2285L0.268555 32.4625L8.69298 30.2542C11.0225 31.5252 13.6341 32.1901 16.2878 32.188H16.2958C25.0489 32.188 32.1788 25.0581 32.1868 16.297C32.1886 14.2091 31.7773 12.1414 30.9766 10.213C30.176 8.28468 29.0038 6.53376 27.5237 5.0611ZM16.2878 29.4987C13.9215 29.4969 11.5991 28.8602 9.56267 27.6551L9.08173 27.3666L4.08399 28.6771L5.41859 23.8016L5.10598 23.2987C3.78302 21.1952 3.08334 18.7599 3.08805 16.275C3.08805 9.00879 9.0136 3.08124 16.2958 3.08124C18.0307 3.07813 19.749 3.41845 21.3517 4.08257C22.9544 4.7467 24.4098 5.72151 25.634 6.95078C26.8622 8.17547 27.8359 9.63109 28.499 11.2338C29.1621 12.8365 29.5014 14.5545 29.4975 16.289C29.4895 23.5812 23.564 29.4987 16.2878 29.4987ZM23.5319 19.6115C23.1371 19.4131 21.1873 18.4532 20.8206 18.3169C20.4559 18.1867 20.1894 18.1186 19.9289 18.5153C19.6624 18.9101 18.9009 19.8098 18.6724 20.0684C18.444 20.3349 18.2075 20.3649 17.8107 20.1685C17.416 19.9682 16.1355 19.5513 14.6205 18.1947C13.4382 17.1427 12.6467 15.8401 12.4102 15.4453C12.1818 15.0486 12.3882 14.8362 12.5866 14.6378C12.7609 14.4614 12.9813 14.1729 13.1797 13.9444C13.3801 13.716 13.4462 13.5476 13.5765 13.2831C13.7067 13.0146 13.6446 12.7862 13.5464 12.5878C13.4462 12.3894 12.6547 10.4316 12.32 9.64203C11.9994 8.86251 11.6728 8.97072 11.4283 8.9607C11.1999 8.94667 10.9333 8.94667 10.6668 8.94667C10.4656 8.9518 10.2676 8.9984 10.0852 9.08357C9.90275 9.16874 9.73989 9.29064 9.60676 9.44164C9.24205 9.83841 8.22206 10.7983 8.22206 12.7561C8.22206 14.7139 9.64483 16.5956 9.84522 16.8621C10.0416 17.1286 12.6387 21.1344 16.6244 22.8578C17.5663 23.2686 18.3077 23.5111 18.8868 23.6954C19.8387 24 20.6984 23.9539 21.3837 23.8557C22.1452 23.7395 23.7303 22.8939 24.0649 21.9661C24.3936 21.0362 24.3936 20.2427 24.2934 20.0764C24.1952 19.908 23.9287 19.8098 23.5319 19.6115Z" fill="#2CEE1A"/>
</g>
<defs>
<clipPath id="clip0_1_7907">
<rect width="32.0625" height="32.0625" fill="white" transform="translate(0.268555 0.399902)"/>
</clipPath>
</defs>
</svg>
